SplineFontDB: 3.2
FontName: dubitable
FullName: dubitable
FamilyName: dubitable
Weight: Regular
Copyright: No rights reserved
UComments: "2026-1-14: Created with FontForge (http://fontforge.org)"
Version: 001.000
ItalicAngle: 0
UnderlinePosition: -100
UnderlineWidth: 50
Ascent: 800
Descent: 200
InvalidEm: 0
LayerCount: 2
Layer: 0 0 "Back" 1
Layer: 1 0 "Fore" 0
XUID: [1021 950 920638577 7257]
StyleMap: 0x0000
FSType: 0
OS2Version: 0
OS2_WeightWidthSlopeOnly: 0
OS2_UseTypoMetrics: 1
CreationTime: 1768377677
ModificationTime: 1768542951
OS2TypoAscent: 0
OS2TypoAOffset: 1
OS2TypoDescent: 0
OS2TypoDOffset: 1
OS2TypoLinegap: 90
OS2WinAscent: 0
OS2WinAOffset: 1
OS2WinDescent: 0
OS2WinDOffset: 1
HheadAscent: 0
HheadAOffset: 1
HheadDescent: 0
HheadDOffset: 1
OS2Vendor: 'PfEd'
MarkAttachClasses: 1
DEI: 91125
Encoding: ISO8859-1
UnicodeInterp: none
NameList: AGL For New Fonts
DisplaySize: -48
AntiAlias: 1
FitToEm: 0
WinInfo: 0 16 4
BeginPrivate: 0
EndPrivate
BeginChars: 256 70

StartChar: A
Encoding: 65 65 0
Width: 561
Flags: HW
LayerCount: 2
Fore
SplineSet
198 379 m 1
 194 385 317.915039062 388.123046875 341 384 c 0
 382 376.676757812 408 371.653320312 352 368 c 0
 316 365.651367188 218 361 197 365 c 0
 176 369 198 379 198 379 c 1
265 309 m 1024
130 149 m 1
 120.334960938 127.01953125 132.4375 65.9345703125 141 103 c 0
 141 103 245 629 267 637 c 0
 289 645 404.146484375 220.323242188 417 188 c 0
 427.505859375 161.579101562 440.94921875 125.530273438 459 119 c 0
 470.556640625 114.819335938 468.9375 144 453 164 c 0
 439.453125 181 420 229 409 263 c 0
 388.16796875 327.389648438 299 647 277 653 c 0
 255 659 269.4921875 662.4921875 253 646 c 0
 239 632 163 296 157 272 c 0
 151.342773438 249.373046875 143.098632812 205 130 149 c 1
EndSplineSet
EndChar

StartChar: B
Encoding: 66 66 1
Width: 530
Flags: HW
LayerCount: 2
Fore
SplineSet
-533 698 m 0
 -533 696 -356.131835938 800 -293 722 c 1
 -259.754882812 610 -503 478 -503 478 c 1
 -503 478 -362.532226562 428.815429688 -265 352 c 0
 -175 281.1171875 -155 230 -159 184 c 0
 -173.668945312 15.3076171875 -454.477539062 111.966796875 -455 112 c 1
 -455 112 -457 116 -533 698 c 1024
  Spiro
    -533 698 {
    -484.893 720.63 o
    -383.174 750.011 o
    -293 722 v
    -332.575 609.071 o
    -441.272 516.299 o
    -503 478 v
    -463.043 462.434 o
    -369.946 418.751 o
    -265 352 o
    -196.678 287.222 o
    -164.687 232.197 o
    -159 184 o
    -242.013 90.3834 o
    -381.414 93.1888 o
    -455 112 v
    -458.324 134.526 o
    -479.035 287.668 o
    -533 698 o
    0 0 z
  EndSpiro
55 675 m 0
 111.8046875 226.706054688 121.192382812 154.38671875 125 85 c 0
 125.522460938 84.966796875 438.331054688 2.3076171875 453 171 c 0
 457 217 437 268.1171875 347 339 c 0
 249.467773438 415.815429688 98 457 98 457 c 1
 98 457 352.245117188 597 319 709 c 1
 255.868164062 787 54.7490234375 676.984375 55 675 c 0
73 664 m 0
 73 683.080078125 172.0390625 720.46484375 244 726 c 0
 270 728 296.22265625 709.822265625 307 687 c 0
 324 651 155 489 108 485 c 0
 89.9541015625 483.463867188 73 600 73 664 c 0
105 427 m 0
 106.436523438 465.248046875 293 356.178710938 335 323 c 0
 389.432617188 280 453.587890625 221 436 167 c 0
 414.967773438 102.426757812 339 96.6474609375 285 85 c 0
 234 74 165.102539062 84 150 101 c 0
 138.451171875 114 103.21484375 379.478515625 105 427 c 0
EndSplineSet
EndChar

StartChar: C
Encoding: 67 67 2
Width: 620
Flags: HW
LayerCount: 2
Fore
SplineSet
513 751 m 0
 442.365234375 742.892578125 436.466796875 743.590820312 361 736 c 0
 297.975585938 729.661132812 189 687 120 621 c 0
 16.662109375 522.154296875 36.994140625 396.0234375 72 257 c 8
 96 159 155.985351562 91.921875 256 73 c 0
 365.938476562 52.201171875 512.508789062 132.651367188 496 168 c 0
 486.291992188 188.787109375 435.004882812 135.907226562 418 127 c 0
 397 116 375.524414062 99.8212890625 275 92 c 0
 249.809570312 90.0400390625 158.161132812 149.119140625 147 164 c 0
 141 172 98.62109375 242.3203125 94 263 c 0
 72.4462890625 359.4609375 52.0283203125 549.28125 136 606 c 0
 158.297851562 621.060546875 297.633789062 699.708984375 343 707 c 0
 399 716 424.899414062 716.711914062 515 727 c 0
 528.255859375 728.513671875 525.954101562 752.486328125 513 751 c 0
EndSplineSet
EndChar

StartChar: D
Encoding: 68 68 3
Width: 528
Flags: HW
LayerCount: 2
Fore
SplineSet
71 644 m 1
 68 62 l 1
 68 62 467 230 460 368 c 0
 450.768554688 549.98828125 257 644 71 644 c 1
85 628 m 1
 163 619 243.16015625 602.283203125 289 580 c 0
 361 545 439.764648438 429.0078125 438 369 c 0
 437.477539062 351.235351562 424.173828125 324.291992188 397.58203125 293 c 0
 373.28125 264.403320312 337.8828125 232.173828125 291 200 c 0
 240 165 155.610351562 117.143554688 81 83 c 1
 85 628 l 1
EndSplineSet
EndChar

StartChar: E
Encoding: 69 69 4
Width: 628
Flags: HW
LayerCount: 2
Fore
SplineSet
53.4287109375 654.71484375 m 1
 539.188476562 705.719726562 l 1
 541.120117188 682.719726562 l 1
 77.4404296875 634.879882812 l 1
 90.3203125 392 l 1
 463.288085938 430.860351562 l 1
 462.919921875 408.560546875 l 1
 94 369 l 1
 107.799804688 103.120117188 l 1
 531 173.959960938 l 1
 530.080078125 150.333984375 l 1
 83.7880859375 73.826171875 l 1
 53.4287109375 654.71484375 l 1
EndSplineSet
EndChar

StartChar: F
Encoding: 70 70 5
Width: 514
Flags: HW
LayerCount: 2
Fore
SplineSet
34 610 m 25
 40 122 l 1
 74 126 l 1
 58 362 l 25
 378 358 l 1
 386 396 l 25
 64 396 l 25
 64 586 l 25
 474 598 l 25
 478 622 l 1
 34 610 l 25
EndSplineSet
EndChar

StartChar: G
Encoding: 71 71 6
Width: 602
Flags: HW
LayerCount: 2
Fore
SplineSet
376 212 m 1
 402 216 l 1
 425 103 l 1
 398 100 l 1
 376 212 l 1
258 228 m 1
 257 208 l 1
 528 206 l 1
 531 230 l 1
 258 228 l 1
499 682 m 0
 378.37890625 675.181640625 297.201171875 679.703125 197 612 c 0
 123 562 79.2236328125 493.821289062 53 408 c 0
 31 336 65.708984375 234 79 191 c 0
 96 136 135.013671875 81.6103515625 193 80 c 0
 265 78 332.9609375 138.9609375 384 190 c 0
 400 206 385.931640625 225.134765625 376 220 c 0
 346 204.490234375 279 107.75 189 104 c 0
 150 102.375 117.578125 156 107 200 c 0
 94.2578125 253 60.4365234375 321 74 400 c 0
 84.20703125 459.450195312 128 555.912109375 209 596 c 0
 309 645.491210938 397.973632812 651.875976562 498 661 c 0
 520.84765625 663.083984375 515.193359375 682.915039062 499 682 c 0
EndSplineSet
EndChar

StartChar: H
Encoding: 72 72 7
Width: 396
Flags: HW
LayerCount: 2
Fore
SplineSet
296 687 m 1
 324 687 l 1
 300 67 l 1
 276 71 l 1
 296 687 l 1
78 439 m 1
 298 443 l 1
 302 419 l 1
 82 417 l 1
 78 439 l 1
70 695 m 1
 58 87 l 1
 84 87 l 1
 98 695 l 1
 70 695 l 1
EndSplineSet
EndChar

StartChar: I
Encoding: 73 73 8
Width: 470
Flags: HW
LayerCount: 2
Fore
SplineSet
34 172 m 25
 34 144 l 25
 422 146 l 25
 422 174 l 25
 34 172 l 25
200 640 m 1
 190 154 l 1
 212 156 l 1
 224 636 l 1
 200 640 l 1
48 648 m 25
 424 654 l 25
 420 630 l 25
 38 622 l 25
 48 648 l 25
EndSplineSet
EndChar

StartChar: J
Encoding: 74 74 9
Width: 479
Flags: HW
LayerCount: 2
Fore
SplineSet
267 618 m 0
 267 623.735351562 229.739257812 624.322265625 231 613 c 0
 235.811523438 569.7890625 246.825195312 524.102539062 248 480 c 0
 249.065429688 440 275.671875 316.098632812 273 282 c 0
 269.462890625 236.861328125 273 191.000976562 240 168 c 0
 219.727539062 153.870117188 104.380859375 252.357421875 53 289 c 0
 41.962890625 296.87109375 34.470703125 278.028320312 51 265 c 0
 111.233398438 217.524414062 221.856445312 92.001953125 268 153 c 0
 337.501953125 244.875976562 267 548 267 618 c 0
73 631 m 25
 67 615 l 25
 437 607 l 25
 437 627 l 25
 73 631 l 25
EndSplineSet
EndChar

StartChar: K
Encoding: 75 75 10
Width: 462
Flags: HW
LayerCount: 2
Fore
SplineSet
381 161 m 1
 401 176 l 1
 83 437 l 1
 75 413 l 1
 381 161 l 1
80 441 m 25
 405 625 l 1
 416 606 l 25
 82 421 l 1
 80 441 l 25
94 654 m 25
 112 654 l 1
 74 154 l 25
 44 156 l 1
 94 654 l 25
EndSplineSet
EndChar

StartChar: L
Encoding: 76 76 11
Width: 382
Flags: HW
LayerCount: 2
Fore
SplineSet
56 201 m 25
 342 169 l 1
 341 143 l 25
 48 177 l 1
 56 201 l 25
104 661 m 1
 38 175 l 1
 68 167 l 25
 128 655 l 1
 104 661 l 1
EndSplineSet
EndChar

StartChar: M
Encoding: 77 77 12
Width: 504
Flags: HW
LayerCount: 2
Fore
SplineSet
42 163 m 1
 42 593 l 1
 244 238 l 25
 370 625 l 1
 470 184 l 1
 441 180 l 1
 369 539 l 1
 247 197 l 1
 65 515 l 1
 73 161 l 1
 42 163 l 1
EndSplineSet
EndChar

StartChar: N
Encoding: 78 78 13
Width: 372
Flags: HW
LayerCount: 2
Fore
SplineSet
38 138 m 1
 52 600 l 1
 249 212 l 25
 314 616 l 1
 330 612 l 1
 253 176 l 1
 67 530 l 1
 56 136 l 1
 38 138 l 1
EndSplineSet
EndChar

StartChar: O
Encoding: 79 79 14
Width: 472
Flags: HW
LayerCount: 2
Fore
SplineSet
107 575 m 0
 60 503 29 313 34 243 c 0
 37.849609375 189.099609375 45.2607421875 154.833007812 95 131 c 0
 143 108 237.952148438 110.12890625 295 131 c 0
 336 146 374 193 393 233 c 0
 416.421875 282.309570312 442.319335938 332.8984375 431 411 c 0
 421 480 409.515625 528.626953125 355 573 c 0
 312 608 275 609 220 609 c 0
 176 609 121.25390625 596.8359375 107 575 c 0
126 567 m 0
 173.259765625 602.833984375 271.625976562 598.749023438 341 560 c 0
 398.83203125 527.697265625 403 471 410 406 c 0
 417 339 402 302 374 241 c 0
 353 197 334 166 288 151 c 0
 218 128 167 122 98 149 c 0
 59.087890625 164.2265625 50.8203125 202.948242188 53 244 c 0
 58.8701171875 354.545898438 88.58984375 531.743164062 123.65625 565 c 0
 124.435546875 565.73828125 125.216796875 566.40625 126 567 c 0
EndSplineSet
EndChar

StartChar: P
Encoding: 80 80 15
Width: 415
Flags: HW
LayerCount: 2
Fore
SplineSet
44 570 m 0
 32 449 48 204.06640625 48 83 c 0
 48 74 72.27734375 73.94921875 72 83 c 0
 69 181 50.0048828125 435 60 569 c 0
 60.4462890625 574.983398438 44.6005859375 576.052734375 44 570 c 0
63 630 m 0
 51 631 44.689453125 599.201171875 57 598 c 0
 139 590 246 585.000976562 323 552 c 0
 365.3203125 533.862304688 315.56640625 443.4375 287 433 c 0
 235 414 134 419.999023438 58 410 c 0
 46.6953125 408.512695312 47.0009765625 381.875 58 382 c 0
 146 383 257 390 295 409 c 0
 350.375 436.6875 401.819335938 531.07421875 349 564 c 0
 272 612 170.852539062 621.012695312 63 630 c 0
EndSplineSet
EndChar

StartChar: Q
Encoding: 81 81 16
Width: 568
Flags: HW
LayerCount: 2
Fore
SplineSet
349 305 m 0
 344 311 323.055664062 300.0390625 328 293 c 0
 340.642578125 275 489 91.9169921875 495 89 c 0
 506.029296875 83.638671875 514.151367188 94.2333984375 511 99 c 0
 503.068359375 111 369 281 349 305 c 0
408 699 m 0
 344 692.479492188 267 718.061523438 164 691 c 0
 102.555664062 674.856445312 55.6357421875 550.0390625 49 487 c 0
 37 373 8 289 73 193 c 24
 128 112 212 85 307 105 c 24
 394 123 430 191 459 275 c 24
 504 406 550.91796875 505.95703125 487 629 c 0
 447 706 289 627.538085938 256 625 c 0
 243 624 251.967773438 604.221679688 265 606 c 0
 348.111328125 617.337890625 406.952148438 679.024414062 447 613 c 0
 513.333984375 503.638671875 475.036132812 404.98828125 436 283 c 0
 412 208 373.08203125 134.599609375 296 119 c 0
 212 102 132.294921875 135.17578125 88 209 c 0
 34 299 67.2236328125 380.974609375 79 485 c 0
 85 538 123.119140625 660.873046875 176 667 c 0
 336.38671875 685.583984375 359 661.307617188 410 675 c 0
 420.083007812 677.70703125 417.998046875 700.018554688 408 699 c 0
EndSplineSet
EndChar

StartChar: R
Encoding: 82 82 17
Width: 426
Flags: HW
LayerCount: 2
Fore
SplineSet
103 361 m 0
 157 324.993164062 312 208.46484375 347 177 c 0
 354.905273438 169.893554688 342.040039062 149.059570312 333 155 c 0
 298 177.999023438 110 327.189453125 80 354 c 0
 73.1259765625 360.143554688 95.1513671875 366.233398438 103 361 c 0
272 632 m 0
 206.352539062 655.986328125 116 655 92 609 c 0
 80.6220703125 587.193359375 73.0751953125 405.981445312 93 379 c 0
 115.154296875 349 265 398 310 430 c 0
 339.213867188 450.774414062 360 482 353 517 c 0
 342.229492188 570.8515625 324 613 272 632 c 0
68 607 m 0
 65.8759765625 698.521484375 241.149414062 663.350585938 276 653 c 0
 340.881835938 633.73046875 360.026367188 591.006835938 377 525 c 0
 386 490 354.548828125 435.58203125 326 413 c 0
 250.254882812 353.0859375 71.75 345 70 351 c 0
 60.451171875 383.747070312 69.78125 530.250976562 68 607 c 0
59 615 m 24
 46 414 46 300 51 99 c 24
 51 91 70.455078125 90.9560546875 71 99 c 0
 84.46484375 297.837890625 76.302734375 414.767578125 85 609 c 0
 85.447265625 618.990234375 60 625 59 615 c 24
EndSplineSet
EndChar

StartChar: S
Encoding: 83 83 18
Width: 561
Flags: HW
LayerCount: 2
Fore
SplineSet
505 584 m 0
 417 608 368.005859375 647.96875 281 633 c 0
 188 617 114.734375 591.692382812 78 505 c 0
 53 446 151 395 183 369 c 0
 208.798828125 348.038085938 416.276367188 299.934570312 427 186 c 0
 435 101 205 111.999023438 139 126 c 0
 129.024414062 128.116210938 122.563476562 152.290039062 133 152 c 0
 205 150 412.866210938 117.973632812 399 188 c 0
 379 289 199 307 160 343 c 0
 100.227539062 398.174804688 10 434 38 511 c 24
 75 613 168 636 274 659 c 24
 366 679 422.91796875 646.493164062 510 613 c 0
 523 608 518.541015625 580.306640625 505 584 c 0
EndSplineSet
EndChar

StartChar: T
Encoding: 84 84 19
Width: 622
Flags: HW
LayerCount: 2
Fore
SplineSet
234 582 m 24
 230 389 244 279.313476562 244 86 c 0
 244 79 262 81 262 88 c 24
 266 281 260 390 254 583 c 0
 253.6875 593.044921875 234 590 234 582 c 24
43 594 m 0
 28.861328125 593.685546875 21.0078125 557.536132812 35 558 c 0
 216 564 389 593 574 600 c 0
 586.033203125 600.455078125 586 630 574 630 c 24
 392 636 223 598 43 594 c 0
EndSplineSet
EndChar

StartChar: U
Encoding: 85 85 20
Width: 406
Flags: HW
LayerCount: 2
Fore
SplineSet
58 623 m 0
 49 493 25 416 52 289 c 24
 68 215 88.0390625 145.178710938 162 129 c 0
 226 115 247 184 283 239 c 24
 321 297 334.486328125 339.916992188 346 409 c 0
 360 493 361 542 356 627 c 24
 356 636 333.904296875 636.21875 334 627 c 0
 335 531 337 457 322 411 c 0
 301.145507812 347.045898438 293.853515625 309.088867188 259 251 c 0
 232 206 214.108398438 142.432617188 163 155 c 0
 102 170 84.6064453125 231.616210938 76 293 c 0
 54.7841796875 444.322265625 83.00390625 491.064453125 78 617 c 0
 77.76171875 622.995117188 58.4140625 628.985351562 58 623 c 0
EndSplineSet
EndChar

StartChar: V
Encoding: 86 86 21
Width: 601
Flags: HW
LayerCount: 2
Fore
SplineSet
30 550 m 1
 284 80 l 1
 559 619 l 25
 521 631 l 1
 281 152 l 1
 59 572 l 1
 30 550 l 1
EndSplineSet
EndChar

StartChar: W
Encoding: 87 87 22
Width: 574
Flags: HW
LayerCount: 2
Fore
SplineSet
27 600 m 24
 64 401 94 102 139 92 c 0
 198.67578125 78.7392578125 244.97265625 506.58984375 272 505 c 0
 306 503 334.053710938 136.54296875 387 143 c 0
 428 148 492 473 537 686 c 0
 539.71875 698.869140625 505.069335938 698.478515625 503 686 c 0
 470 487 412 186 391 185 c 0
 351.993164062 183.142578125 318 557 265 550 c 0
 247.127929688 547.639648438 147 133 135 136 c 0
 130.053710938 137.236328125 87 421 45 602 c 24
 43 609 26 607 27 600 c 24
EndSplineSet
EndChar

StartChar: X
Encoding: 88 88 23
Width: 691
Flags: HW
LayerCount: 2
Fore
SplineSet
80 707 m 0
 74.70703125 712.951171875 44.0244140625 717.552734375 36 710 c 0
 19 694 65.904296875 693.5859375 76 677 c 0
 88.9404296875 655.741210938 361.880859375 323.796875 574 87 c 0
 591.372070312 67.6064453125 625.875976562 46.865234375 642 29 c 0
 651.013671875 19.0126953125 675.48828125 44.4189453125 666 55 c 0
 649.9140625 72.9384765625 609.23046875 95.94140625 593 114 c 0
 416.51953125 310.358398438 256.745117188 508.275390625 80 707 c 0
85 74 m 0
 86 68 98.2548828125 47.7763671875 107 58 c 0
 249 224 437 442 637 696 c 24
 642 703 624.5859375 714.387695312 619 708 c 0
 413.668945312 473.1953125 235.774414062 260.766601562 91 92 c 0
 88.4130859375 88.984375 84.48046875 77.119140625 85 74 c 0
EndSplineSet
EndChar

StartChar: Y
Encoding: 89 89 24
Width: 523
Flags: HW
LayerCount: 2
Fore
SplineSet
31 597 m 0
 24.2080078125 605.880859375 48.287109375 632.498046875 55.4345703125 623.228515625 c 0
 85.0810546875 584.782226562 79.484375 584.936523438 108.39453125 556.934570312 c 0
 158.138671875 508.75390625 229.713867188 469.19140625 282 414 c 0
 287.544921875 408.147460938 265.673828125 386.809570312 259.274414062 392.470703125 c 0
 175.544921875 466.540039062 111.053710938 492.341796875 31 597 c 0
441 660 m 0
 453.40625 673.859375 485.182617188 663.274414062 475 648 c 0
 393 525 98 134 113 48 c 0
 118.739257812 15.0947265625 58.5126953125 61.1142578125 67 82 c 0
 93.859375 148.092773438 330 536 441 660 c 0
EndSplineSet
EndChar

StartChar: Z
Encoding: 90 90 25
Width: 540
Flags: HW
LayerCount: 2
Fore
SplineSet
55 174 m 0
 257 184 287 156.004882812 489 160 c 0
 502.036132812 160.2578125 504.0234375 126.62890625 491 126 c 0
 284 116 249.37890625 129.362304688 43 150 c 0
 33 151 44.962890625 173.502929688 55 174 c 0
462 650 m 0
 469.143554688 655.828125 489 644 482 638 c 0
 276.868164062 462.172851562 257 313 47 142 c 0
 34.2822265625 131.643554688 29.41015625 171.623046875 41 182 c 0
 213 336 261 486 462 650 c 0
63 661 m 0
 256.372070312 672.030273438 286.44921875 660.436523438 486 666 c 0
 503.022460938 666.474609375 505.100585938 622.765625 488 622 c 0
 259.686523438 611.775390625 173.015625 631.346679688 45 617 c 0
 27.083984375 614.9921875 44.9189453125 659.96875 63 661 c 0
EndSplineSet
EndChar

StartChar: a
Encoding: 97 97 26
Width: 436
Flags: HW
LayerCount: 2
Fore
SplineSet
339 418 m 4
 337 345 344 227 338 144 c 4
 337.3515625 135.0234375 358.920898438 134.008789062 360 143 c 4
 372 243 355 316.920898438 355 418 c 4
 355 424 339.166992188 424.080078125 339 418 c 4
331 413 m 4
 339.256835938 380.215820312 308.463867188 283.163085938 302 261 c 4
 288 213 237 133 218 117 c 4
 166.421875 73.5654296875 56.37109375 167.008789062 57 184 c 4
 58 211 64.3994140625 315 130 395 c 4
 143.072265625 410.94140625 327.891601562 425.342773438 331 413 c 4
356 428 m 4
 351.827148438 452.649414062 142.248046875 440.791015625 118 417 c 4
 65 365 31 201 34 179 c 4
 38.3330078125 147.221679688 148.069335938 48.0341796875 230 89 c 4
 258 103 375.655273438 311.895507812 356 428 c 4
EndSplineSet
EndChar

StartChar: b
Encoding: 98 98 27
Width: 360
Flags: HW
LayerCount: 2
Fore
SplineSet
99 334 m 0
 105 370 140.038085938 386.807617188 186 396 c 0
 211 401 249.969726562 376.986328125 260 354 c 0
 284 299 307.551757812 235.224609375 285 192 c 0
 261 146 163 128 133 148 c 0
 115.927734375 159.381835938 89.6484375 277.887695312 99 334 c 0
103 143 m 0
 116.439453125 60.1240234375 296 156 306 174 c 0
 314.955078125 190.119140625 319.090820312 289.047851562 279 364 c 0
 256 407 220 425.361328125 180 416 c 0
 133 405 85.056640625 390.236328125 74 344 c 0
 63 298 97 180 103 143 c 0
47 712 m 0
 52.2685546875 666 69.1669921875 223 84 134 c 0
 85 128 111.686523438 125.956054688 111 132 c 0
 85 361 76.6669921875 688 72 716 c 0
 71.4765625 719.139648438 64.4658203125 719.552734375 58 718.3671875 c 0
 52.109375 717.288085938 46.669921875 714.880859375 47 712 c 0
EndSplineSet
EndChar

StartChar: c
Encoding: 99 99 28
Width: 400
Flags: HW
LayerCount: 2
Fore
SplineSet
331 407 m 0
 297.567382812 402.470703125 67.0831702908 441.99608698 60 272 c 0
 53 104 279 104.000976562 319 108 c 0
 333.69140625 109.46875 334.2265625 142.927734375 319 144 c 0
 270.946289062 147.3828125 78.3704170802 156.087946838 88 272 c 0
 99.9833984375 416.245117188 295.795898438 368.448242188 329 383 c 0
 345.942382812 390.424804688 346.395507812 409.0859375 331 407 c 0
EndSplineSet
EndChar

StartChar: d
Encoding: 100 100 29
Width: 435
Flags: HW
LayerCount: 2
Fore
SplineSet
316 195 m 0
 314.65234375 168.28515625 325.903320312 139.85546875 331 121 c 0
 333.796875 110.65234375 372.499023438 94.9453125 361 122 c 0
 352.299804688 142.467773438 346.399414062 181.015625 343 197 c 0
 342.508789062 199.309570312 316.287109375 200.69140625 316 195 c 0
293 434 m 0
 295.533203125 423.110351562 322.274414062 421.07421875 321 432 c 0
 316.799804688 468 300.686523438 628 295 652 c 0
 292.874023438 660.970703125 270.24609375 659.96875 271 651 c 0
 281.967773438 520.4453125 289.045898438 451 293 434 c 0
297 406 m 0
 302.359375 403.094726562 328.263671875 245.645507812 311 198 c 0
 284.815429688 125.732421875 161.655273438 138.267578125 114 186 c 0
 67.3203125 232.754882812 81.2021484375 302.252929688 120 356 c 0
 142.013671875 386.49609375 207.563476562 454.4921875 297 406 c 0
320 440 m 0
 196 450.331054688 135.333984375 424 100 378 c 0
 47.4814453125 309.627929688 34 213 100 158 c 24
 172 98 282.323242188 103.748046875 340 178 c 0
 347.982421875 188.276367188 343.71875 271.9375 336.65625 342 c 0
 331.34765625 394.654296875 324.458984375 439.62890625 320 440 c 0
EndSplineSet
EndChar

StartChar: e
Encoding: 101 101 30
Width: 436
Flags: HW
LayerCount: 2
Fore
SplineSet
46 288 m 0
 55.5986328125 299.575195312 69.6796875 285.219726562 73 281 c 0
 80.126953125 271.943359375 116.057617188 189 133 168 c 0
 145.106445312 152.994140625 167.262695312 137.498046875 186 136 c 0
 221.03125 133.19921875 296.783203125 162.826171875 332 194 c 0
 355.41796875 214.729492188 378.870117188 263.961914062 384 273 c 0
 387.217773438 278.669921875 412.686523438 272.936523438 398 253 c 0
 393.458007812 246.834960938 367.059570312 193.225585938 353 181 c 0
 310.319335938 143.887695312 223 97.0205078125 177 107 c 0
 148.905273438 113.094726562 121.970703125 130.341796875 103 154 c 0
 61.8740234375 205.288085938 45.220703125 279.306640625 44 283 c 0
 43.7783203125 283.670898438 45.1708984375 287 46 288 c 0
82 422 m 0
 138.666015625 471.922851562 175.959960938 455.741210938 236 421 c 0
 285.45703125 392.381835938 290.186523438 341.146484375 256 304 c 0
 195.258789062 237.999023438 181.865234375 243.651367188 95 244 c 0
 11.7841796875 244.333984375 19.3564453125 366.811523438 82 422 c 0
122 268 m 0
 169.348632812 272.889648438 200.212890625 263.358398438 242 328 c 0
 254.3046875 347.034179688 258.752929688 378.547851562 226 403 c 0
 189.879882812 429.965820312 133.998046875 430.771484375 98 402 c 0
 62.294921875 373.461914062 59.8046875 328.2265625 72.01953125 286 c 0
 77.9453125 265.514648438 108.6484375 266.62109375 122 268 c 0
EndSplineSet
EndChar

StartChar: f
Encoding: 102 102 31
Width: 416
Flags: HW
LayerCount: 2
Fore
SplineSet
49 421 m 0
 34.994140625 420.092773438 26.0234375 389.143554688 39 387 c 0
 59 383.6953125 299 381.490234375 323 383 c 0
 335.017578125 383.755859375 336.994140625 410.962890625 325 413 c 0
 315 414.698242188 63 421.907226562 49 421 c 0
107 82 m 0
 107.594726562 72.9638671875 134.87890625 71.9873046875 134 81 c 0
 120.450195312 219.869140625 105.369140625 362.596679688 123 459 c 0
 132.5703125 511.326171875 128.564453125 602.078125 185 659 c 0
 222.76171875 697.086914062 316 622.049804688 323 617 c 0
 337 606.900390625 331.67578125 565.705078125 347 564 c 0
 391.879882812 559.006835938 363.920898438 624.0703125 347 637 c 0
 292.56640625 678.592773438 239 723 181 687 c 0
 105.077148438 639.875 107 562 95 473 c 0
 74.646484375 322.046875 97 234 107 82 c 0
EndSplineSet
EndChar

StartChar: g
Encoding: 103 103 32
Width: 363
Flags: HW
LayerCount: 2
Fore
SplineSet
268 138 m 0
 261.591796875 91 282.919921875 27.029296875 260 -36 c 0
 248 -69 220 -79 186 -87 c 24
 150 -95 124 -91 92 -73 c 24
 66 -58 71 -30 49 -9 c 24
 43 -3 27 -3 28 -11 c 24
 30 -44 38 -63 55 -91 c 24
 63 -104 74 -108 90 -111 c 24
 128 -118 152 -127 189 -114 c 24
 235 -99 272.959960938 -87.9853515625 290 -43 c 0
 315 23 303.12890625 72.154296875 293 142 c 0
 292.419921875 146 268.955078125 145.005859375 268 138 c 0
271 300 m 0
 271.653320312 295.067382812 270.5 290 270.532226562 284 c 0
 270.81640625 231.03125 283 149.52734375 260 134 c 0
 238.078125 119.200195312 175.760742188 130.032226562 138 134 c 0
 117 136.20703125 94.564453125 160 84 173 c 0
 61.990234375 200.084960938 62.9658203125 208 67 252 c 0
 69.1318359375 275.248046875 81.8994140625 292.397460938 105 298 c 0
 172.80078125 314.442382812 265.280273438 343.184570312 271 300 c 0
282 330 m 0
 209.591796875 359.836914062 155 330.063476562 105 318 c 0
 75.0537109375 310.774414062 46.689453125 286.040039062 43 256 c 0
 36 199 43 170.526367188 73 150 c 0
 106 127.420898438 113 114.420898438 139 112 c 0
 154 110.603515625 274.107421875 80.857421875 290 125 c 0
 302.924804688 160.8984375 318.349609375 315.021484375 282 330 c 0
EndSplineSet
EndChar

StartChar: h
Encoding: 104 104 33
Width: 406
Flags: HW
LayerCount: 2
Fore
SplineSet
91.896484375 257.4921875 m 0
 67.572265625 232.1953125 74.5078125 193.344726562 85 202 c 0
 125 235 172 296 236 311 c 0
 256.071289062 315.704101562 273.962890625 290.990234375 279 271 c 0
 294.299804688 210.283203125 301.7734375 153 301 108 c 0
 300.66796875 88.689453125 349.470703125 89.5673828125 349 108 c 0
 347.352539062 172.458007812 340.040039062 219.149414062 316 284 c 0
 303.022460938 319.0078125 275 344 232.618164062 339.41796875 c 0
 172.014648438 332.866210938 102 268 91.896484375 257.4921875 c 0
82 670 m 0
 76 476 57 331 62 114 c 24
 62 101 95 99 96 112 c 16
 98.79296875 139.295898438 101.263671875 165.560546875 103.4453125 191 c 0
 118.443359375 365.9375 119.74609375 501.868164062 118 666 c 0
 117.850585938 679.999023438 82.43359375 684.029296875 82 670 c 0
EndSplineSet
EndChar

StartChar: i
Encoding: 105 105 34
Width: 209
Flags: HW
LayerCount: 2
Fore
SplineSet
81 520 m 0
 81 533 92 544 105 544 c 0
 118 544 129 533 129 520 c 0
 129 507 118 496 105 496 c 0
 92 496 81 507 81 520 c 0
91 390 m 24
 70 283 81 208 71 112 c 0
 69.5458984375 98.0400390625 104 92 107 106 c 24
 127 210 117 272 123 378 c 0
 124.0234375 396.08203125 94 403 91 390 c 24
EndSplineSet
EndChar

StartChar: j
Encoding: 106 106 35
Width: 336
Flags: HW
LayerCount: 2
Fore
SplineSet
194 420 m 0
 194 431 203 440 213 440 c 0
 223 440 232 431 232 420 c 0
 232 409 223 400 213 400 c 0
 203 400 194 409 194 420 c 0
204 315 m 0
 203.364257812 328.022460938 236 328 238 315 c 24
 261 153 274.967773438 150.82421875 245 -11 c 0
 235 -65 169 -69 132 -73 c 0
 107.404296875 -75.6591796875 84.1103515625 -56.1103515625 66 -38 c 0
 53 -25 39 -13 34 10 c 0
 30.1005859375 27.9384765625 36.431640625 40.5224609375 53 35 c 0
 80 26 96 -29 126 -35 c 0
 152.165039062 -40.2333984375 204.98828125 -36.998046875 209 -11 c 0
 234 151 212 151 204 315 c 0
EndSplineSet
EndChar

StartChar: k
Encoding: 107 107 36
Width: 447
Flags: HW
LayerCount: 2
Fore
SplineSet
106 400 m 0
 101.57421875 412.559570312 82.435546875 382.703125 88 368 c 0
 108.528320312 313.75390625 160.940429688 276.712890625 204 247 c 0
 242.555664062 220.39453125 331.814453125 190.068359375 380 157 c 0
 392.905273438 148.143554688 407.947265625 185.60546875 394 194 c 0
 351 219.879882812 263.329101562 254.841796875 227 279 c 0
 177 312.249023438 127.15625 339.962890625 106 400 c 0
94 395 m 0
 198 432 260 450 366 482 c 0
 379.70703125 486.137695312 397.830078125 454.704101562 384 451 c 0
 272 421 206 400 104 365 c 0
 92.4931640625 361.051757812 82.6162109375 390.950195312 94 395 c 0
53 622 m 0
 56 546 56 500 67 424 c 0
 87.9453125 279.2890625 65 195 85 50 c 24
 87 37 118 37 119 50 c 24
 129 196 131.8125 280.3125 111 426 c 0
 100 503 110 549 91 630 c 0
 86.3759765625 649.713867188 52.4033203125 637.12109375 53 622 c 0
EndSplineSet
EndChar

StartChar: l
Encoding: 108 108 37
Width: 214
Flags: HW
LayerCount: 2
Fore
SplineSet
77 723 m 0
 74.5087890625 745.952148438 116.647460938 754.130859375 121 731 c 0
 152.934570312 561.28125 104.13631643 258.305797528 140 104 c 0
 145.903320312 78.6005859375 92.129755855 72.8476362016 88 99 c 0
 60.6904296875 271.942382812 92.669921875 578.638671875 77 723 c 0
EndSplineSet
EndChar

StartChar: m
Encoding: 109 109 38
Width: 540
Flags: HW
LayerCount: 2
Fore
SplineSet
250 199 m 0
 246.177734375 191.901367188 268.547851562 175.407226562 274 181 c 0
 311.044921875 219 307 267 352 297 c 0
 370 309 400 293 411 275 c 0
 432.556640625 239.725585938 432 166 453 130 c 0
 457.506835938 122.274414062 483 131 482 140 c 0
 476.680664062 187.872070312 462 256 433 294 c 0
 413.950195312 318.961914062 368.165039062 337.70703125 340 322 c 0
 288 293 278 251 250 199 c 0
59 309 m 24
 48 305 47 280 59 279 c 0
 115.881835938 274.259765625 162.333007812 340.509765625 210 309 c 0
 256.951171875 277.963867188 226.6484375 240.162109375 246 185 c 0
 252.620117188 166.127929688 280 173 279 193 c 0
 275.997070312 253.05859375 280 311 227 339 c 24
 168 370 122 332 59 309 c 24
47 343 m 0
 42.4990234375 201 48.734375 267 47 125 c 0
 46.8408203125 111.962890625 80.337890625 109.978515625 81 123 c 0
 87.6474609375 253.822265625 81.7099609375 181.8046875 83 339 c 0
 83.115234375 353.03515625 47.4443359375 357.028320312 47 343 c 0
EndSplineSet
EndChar

StartChar: n
Encoding: 110 110 39
Width: 429
Flags: HW
LayerCount: 2
Fore
SplineSet
69 398 m 24
 57 394 52 366 65 366 c 0
 142.026367188 366 209.978515625 442.973632812 270 395 c 0
 343.0234375 336.634765625 300.423828125 256.418945312 319 188 c 0
 324.625976562 167.279296875 376 173 373 194 c 24
 359 302 374 367 287 432 c 0
 217.784179688 483.712890625 151 423 69 398 c 24
51 422 m 0
 29.1259765625 285 45.1044921875 289 39 150 c 0
 38.296875 133.984375 78.3779296875 135.93359375 81 152 c 0
 103.528320312 290.01953125 98.7490234375 274.998046875 95 428 c 0
 94.5830078125 445.024414062 53.7216796875 439.046875 51 422 c 0
EndSplineSet
EndChar

StartChar: o
Encoding: 111 111 40
Width: 490
Flags: HW
LayerCount: 2
Fore
SplineSet
144 322 m 0
 99.048828125 286.108398438 106.95982281 234.01945063 136.540039062 183.33984375 c 0
 161.861328125 139.95703125 215.441403061 118.433859578 263 126 c 0
 307 133 323 159 343 197 c 0
 359.247809797 227.870838615 369.679842964 305.755212637 314 332 c 0
 220.01953125 376.297851562 169.060546875 342.009765625 144 322 c 0
114 345 m 0
 162.07421875 391.442382812 224.017578125 419.545898438 332 360 c 0
 404.209960938 320.180664062 408.755999129 265.647649674 381 186 c 0
 358 120 318 94 266 86 c 0
 196.740323043 75.3446650835 135.285039745 93.9003390082 106 160 c 0
 72.640625 235.295898438 56.2236328125 289.185546875 114 345 c 0
EndSplineSet
EndChar

StartChar: p
Encoding: 112 112 41
Width: 405
Flags: HW
LayerCount: 2
Fore
SplineSet
75.5400390625 210.629882812 m 4
 77.453125 235.584960938 79.7958984375 253.294921875 87.8994140625 266.174804688 c 4
 104.825195312 293.078125 120.392578125 329.646484375 148.926757812 341.844726562 c 4
 179.0546875 354.724609375 199.9375 355.686523438 232.357421875 349.89453125 c 4
 259.39453125 345.064453125 277.09375 347.350585938 301.109375 333.794921875 c 4
 319.649414062 323.330078125 332.782226562 315.280273438 341.279296875 295.959960938 c 28
 352.094726562 270.200195312 350.981445312 252.4609375 349.004882812 224.314453125 c 4
 346.6875 191.309570312 342.444335938 173.739257812 332.009765625 142.205078125 c 4
 324.284179688 118.860351562 318.028320312 102.901367188 297.247070312 90.6845703125 c 4
 267.119140625 72.974609375 246.262695312 84.2265625 212.272460938 82.634765625 c 4
 143.51953125 79.4150390625 124.084960938 60.35546875 57 77 c 4
 40.77734375 81.0244140625 42.708984375 114.18359375 58.544921875 112.419921875 c 4
 102.462890625 107.530273438 143.365234375 110.0078125 210.727539062 114.834960938 c 4
 240.053710938 116.936523438 258.586914062 110.893554688 284.88671875 122.884765625 c 4
 297.247070312 128.51953125 304.19921875 143.814453125 307.290039062 157.5 c 28
 313.469726562 184.870117188 317.094726562 202.588867188 318.104492188 229.950195312 c 4
 318.876953125 250.879882812 319.836914062 264.647460938 311.924804688 283.884765625 c 4
 307.290039062 295.155273438 288.75 304.814453125 278.70703125 310.450195312 c 28
 259.39453125 320.110351562 250.928710938 319.48828125 230.040039062 323.330078125 c 4
 203.774414062 328.16015625 184.30859375 322.173828125 159.7421875 312.865234375 c 4
 142.747070312 306.424804688 140.099609375 293.747070312 131.159179688 277.4453125 c 4
 114.385742188 246.854492188 107.771484375 214.655273438 105.666992188 209.825195312 c 4
 95.1796875 185.754882812 73.8916015625 189.140625 75.5400390625 210.629882812 c 4
74.767578125 210.629882812 m 4
 73.923828125 228.390625 104.208007812 227.633789062 105.666992188 209.825195312 c 4
 118.331054688 55.2646484375 98.6455078125 54.7548828125 110.35546875 -99.8046875 c 4
 111.637695312 -116.733398438 83.3173828125 -115.904296875 81 -99 c 28
 60.9150390625 55.560546875 82.4921875 48.01953125 74.767578125 210.629882812 c 4
EndSplineSet
EndChar

StartChar: q
Encoding: 113 113 42
Width: 431
Flags: HW
LayerCount: 2
Fore
SplineSet
248.921875 99.4482421875 m 4
 244.055664062 55.07421875 240.170898438 -116.034179688 255 -137 c 4
 271.287109375 -160.026367188 374.649414062 -57.810546875 377.504882812 -54.744140625 c 4
 383.94921875 -47.8212890625 362.900390625 -25.537109375 358.55859375 -27.955078125 c 4
 354.149414062 -30.41015625 279.297851562 -107.158203125 276.01953125 -86.34765625 c 4
 273.790039062 -72.1953125 285.197265625 68.158203125 280.1484375 114.5546875 c 4
 276.036132812 152.344726562 254.72265625 152.34375 248.921875 99.4482421875 c 4
158 248 m 4
 185.681640625 249.127929688 230.262695312 249.857421875 248.362304688 219.616210938 c 4
 266.341796875 189.576171875 241.595703125 109.189453125 234.967773438 99.8193359375 c 4
 223.650390625 83.8193359375 189.116210938 74.9384765625 160.879882812 72.1640625 c 4
 120.315429688 68.177734375 126 79.064453125 100 84 c 4
 87 86.4677734375 83.48046875 126 74 148 c 4
 69.2041015625 159.12890625 53.65625 195.69140625 76 215 c 4
 98.392578125 234.350585938 110.258789062 246.0546875 158 248 c 4
271.203125 228.971679688 m 4
 243.381835938 268.3515625 208.553710938 276.248046875 154 275 c 4
 88.833984375 273.508789062 89.40625 260.33984375 60 234 c 4
 33 209.815429688 37.134765625 175.375 43 158 c 4
 44.58984375 153.290039062 49.21484375 110.354492188 51 106 c 4
 62.880859375 77.015625 69.373046875 61.705078125 99 54 c 4
 134.111328125 44.869140625 130.94921875 40.4091796875 179.166992188 46.90625 c 4
 219.456054688 52.3349609375 250.6171875 64.6630859375 271.661132812 104.100585938 c 4
 280.956054688 121.51953125 297.5625 191.661132812 271.203125 228.971679688 c 4
EndSplineSet
EndChar

StartChar: r
Encoding: 114 114 43
Width: 450
Flags: HW
LayerCount: 2
Fore
SplineSet
71 217 m 0
 71 200.447265625 86.9263501619 199.006078872 95 214 c 0
 102 227 109.408203125 328.181640625 116 334.8828125 c 0
 123 342 141.3125 356.440429688 175 357 c 0
 237.27734375 358.034179688 306.721679688 320.206054688 384 336 c 0
 405.908203125 340.477539062 402.135742188 368.111328125 380 368 c 0
 298.126953125 367.586914062 240.7421875 393.78515625 167 385 c 0
 126.444335938 380.16796875 100.640625 363.838867188 93 359 c 0
 80.130859375 350.849609375 73.8857421875 323.744140625 70.951171875 293 c 0
 67.0439453125 252.075195312 71 234.702148438 71 217 c 0
45 338 m 0
 36.15625 164 64.0743686041 265.999998105 62 102 c 0
 61.7080078125 78.9150390625 100.9597933 77.6777418513 102 101 c 0
 109.1015625 260.22265625 66.255859375 159.588867188 77 335 c 0
 78.3505859375 357.049804688 46.134765625 360.33203125 45 338 c 0
EndSplineSet
EndChar

StartChar: s
Encoding: 115 115 44
Width: 328
Flags: HW
LayerCount: 2
Fore
SplineSet
260.3359375 353.922851562 m 0
 223.149414062 340.533203125 115.252929688 381.2890625 48.1591796875 327.36328125 c 0
 25.1923828125 308.90234375 65.6953125 274.037109375 85 267 c 0
 124.142578125 252.732421875 163.557617188 255.44140625 197.822265625 219.807617188 c 0
 223.149414062 193.467773438 255.603515625 167.01171875 223.149414062 147.373046875 c 0
 169.750976562 115.057617188 151.012695312 141.684570312 73.5791015625 149.217773438 c 0
 59.7197265625 150.565429688 61.98828125 119.877929688 75.7900390625 118.837890625 c 0
 143.379882812 113.74609375 196.168945312 84.0380859375 247.625 126.388671875 c 0
 290.935546875 162.03515625 263.846679688 190.329101562 227.754882812 232.977539062 c 24
 185.7578125 281.9921875 160.982421875 280.169921875 104.571289062 294.4375 c 0
 92.095703125 297.592773438 77.26953125 305.02734375 85 315.290039062 c 0
 101.46484375 337.150390625 238.090820312 318.306640625 269.63671875 325.124023438 c 0
 280.264648438 327.420898438 270.470703125 357.572265625 260.3359375 353.922851562 c 0
EndSplineSet
EndChar

StartChar: t
Encoding: 116 116 45
Width: 424
Flags: HW
LayerCount: 2
Fore
SplineSet
69 467 m 0
 51.892578125 466.43359375 33.947265625 425.513671875 51 427 c 0
 103.904296875 431.609375 158.400390625 429.862304688 189 428.620117188 c 0
 204.370117188 427.99609375 218.7578125 427.5 234 428 c 0
 264.573242188 429.00390625 297.922851562 424.184570312 345 427.701171875 c 0
 352.321289062 428.248046875 359.973632812 428.997070312 368 430 c 0
 384 432 374.12109375 470.334960938 358 470 c 0
 228.581054688 467.309570312 193.19140625 471.109375 69 467 c 0
190 708 m 0
 167.073242188 602.356445312 170.563476562 649.938476562 154 542 c 0
 132.516601562 402 95.6513671875 129.375976562 94 98 c 0
 93 79 138.9453125 68.8251953125 142 88 c 0
 148.546875 129.102539062 178.15234375 407.077148438 195 538 c 0
 208.484375 642.7890625 207.99609375 592.637695312 224 702 c 0
 226.610351562 719.837890625 192.829101562 721.038085938 190 708 c 0
EndSplineSet
EndChar

StartChar: u
Encoding: 117 117 46
Width: 400
Flags: HW
LayerCount: 2
Fore
SplineSet
325 160 m 0
 327.1640625 147.181640625 356.962890625 163.149414062 355 176 c 0
 344 248 339 293 329 366 c 0
 326.504882812 384.21484375 279.780273438 379.709960938 283 362 c 0
 297 285 312 237 325 160 c 0
79 410 m 24
 55 307 10 236 53 140 c 24
 78 84 163 79 209 120 c 24
 295 196 307.467773438 275.65625 333 388 c 0
 338 410 292.466796875 408.36328125 287 386 c 0
 265 296 260.537109375 239.703125 197 166 c 0
 172 137 103.365234375 129.100585938 93 166 c 0
 68 255 101 308 113 400 c 0
 114.810546875 413.8828125 82 423 79 410 c 24
EndSplineSet
EndChar

StartChar: v
Encoding: 118 118 47
Width: 515
Flags: HW
LayerCount: 2
Fore
SplineSet
48 339 m 0
 74.6142578125 232.544921875 160 35.0009765625 207 43 c 0
 223.875 45.8720703125 464 357 471 379 c 0
 476.303710938 395.668945312 440.013671875 415.0234375 431 399 c 0
 422 383 227 102 202 102 c 0
 188.3984375 102 88.2763671875 357.723632812 80 366 c 0
 72 374 45 351 48 339 c 0
EndSplineSet
EndChar

StartChar: w
Encoding: 119 119 48
Width: 579
Flags: HW
LayerCount: 2
Fore
SplineSet
40 400 m 4
 43 391 172.046875 134.286132812 185 132 c 4
 202 129 259.044921875 351.080078125 272 350 c 4
 296 348 389.135742188 139.115234375 405 142 c 4
 416 144 530 406 532 414 c 4
 537.296875 435.188476562 510.1875 439.178710938 499 420 c 4
 492 408 414 192 400 192 c 4
 380 192 293 398 269 398 c 4
 249 398 190.96484375 182.696289062 184 182 c 4
 174 181 95 399 78 422 c 4
 68.107421875 435.383789062 34.5966796875 416.2109375 40 400 c 4
EndSplineSet
EndChar

StartChar: x
Encoding: 120 120 49
Width: 335
Flags: HW
LayerCount: 2
Fore
SplineSet
57 378.4296875 m 0
 90.5068359375 328.504882812 97.4443359375 291.391601562 126.3203125 254.08984375 c 0
 149.309570312 224.39453125 196.828125 196.345703125 228.690429688 160.659179688 c 0
 235.770507812 152.729492188 246.265625 167.888671875 240.490234375 176.51953125 c 0
 214.55859375 215.275390625 164.33203125 236.684570312 141.3203125 265.08984375 c 0
 111.453125 301.958984375 106.33203125 342.484375 67.0302734375 388.189453125 c 0
 65.3759765625 390.11328125 62.6357421875 389.939453125 59.9501953125 388.639648438 c 0
 54.9736328125 386.23046875 54.3330078125 382.403320312 57 378.4296875 c 0
272.3203125 379.08984375 m 0
 271.10546875 378.114257812 253.090820312 371.849609375 241.888671875 359.08984375 c 0
 219.803710938 333.934570312 185.331054688 295.194335938 166.150390625 279.609375 c 0
 152.580078125 268.583007812 58.130859375 182.619140625 51.1005859375 174.689453125 c 0
 44.6103515625 167.369140625 49.3486328125 150.875 57 157 c 0
 105.840820312 196.092773438 142.163085938 233.008789062 177.950195312 267.409179688 c 0
 235.696289062 322.91796875 241.600585938 336.775390625 259.3203125 346.379882812 c 0
 264.3203125 349.08984375 279.479492188 356.26171875 286.3203125 364.08984375 c 0
 293.61328125 372.435546875 280.616210938 385.751953125 272.3203125 379.08984375 c 0
EndSplineSet
EndChar

StartChar: y
Encoding: 121 121 50
Width: 368
Flags: HW
LayerCount: 2
Fore
SplineSet
265 322 m 0
 254 224 288.034214657 137.384759149 270 40 c 0
 265 13 234.173828125 -34.6826171875 208 -41 c 0
 179 -48 157.6328125 -49.10546875 129 -39 c 0
 112 -33 94 -15 78 -4 c 0
 67.576171875 3.166015625 43 26 34 18 c 0
 20.21875 5.75 42.0625 -20.93359375 56 -34 c 0
 72 -49 94.0986328125 -63.4912109375 116 -68 c 0
 150 -75 177.91796875 -84.751953125 211 -74 c 0
 251 -61 286.815843228 -14.9532304145 297 25 c 0
 323 127 300.416992188 217.829101562 290 322 c 0
 289 332 266.12109375 331.987304688 265 322 c 0
88 352 m 24
 73 278 50.947265625 230.981445312 76 160 c 0
 88 126 131 130 167 130 c 0
 197 130 231.890625 132.067382812 248 158 c 0
 289 224 293.947265625 271.002929688 298 348 c 0
 299 367 268.420898438 365.221679688 264 346 c 0
 249.247070312 281.856445312 261.181640625 240.797851562 223 185 c 0
 212.389648438 169.494140625 188.009765625 160.791992188 169 160 c 0
 145 159 109.380859375 160.102539062 103 183 c 0
 86 244 113 292 114 344 c 0
 114.211914062 355.04296875 90 362 88 352 c 24
EndSplineSet
EndChar

StartChar: z
Encoding: 122 122 51
Width: 485
Flags: HW
LayerCount: 2
Fore
SplineSet
67.7392578125 434.359375 m 0
 167.099609375 441.080078125 429.661132812 451.637695312 436.19921875 431 c 0
 448.619140625 391.799804688 106.379882812 185.719726562 110.51953125 174.51953125 c 0
 117.537109375 155.53515625 379.076171875 179.774414062 401.69921875 180.120117188 c 0
 425.647460938 180.485351562 428.998046875 151.107421875 408.599609375 140.919921875 c 0
 390.659179688 131.959960938 39.255859375 129.854492188 36 151 c 0
 33.2392578125 168.919921875 410.53515625 413.408203125 369.959960938 414.200195312 c 0
 345.609375 414.674804688 145.932617188 398.487304688 60.83984375 398.51953125 c 0
 43.576171875 398.526367188 50.330078125 433.182617188 67.7392578125 434.359375 c 0
EndSplineSet
EndChar

StartChar: question
Encoding: 63 63 52
Width: 479
Flags: HW
LayerCount: 2
Fore
SplineSet
254 109 m 0
 254 118 261 126 270 126 c 0
 279 126 286 118 286 109 c 0
 286 100 279 92 270 92 c 0
 261 92 254 100 254 109 c 0
45 591 m 0
 135 647 135.997070312 689.92578125 242 686 c 0
 350 682 424.24609375 664.0703125 429 569 c 0
 434 469 322.344726562 499.862304688 282 399 c 0
 240 294 287.700195312 306.107421875 279 193 c 0
 278 180 258.364257812 177.728515625 257 191 c 0
 246 298 221 290 254 402 c 0
 284.763671875 506.411132812 397 485 397 564 c 0
 397 642 332.004882812 659.764648438 242 658 c 0
 140 656 97 585 43 559 c 0
 31.603515625 553.512695312 33.9296875 584.111328125 45 591 c 0
EndSplineSet
EndChar

StartChar: zero
Encoding: 48 48 53
Width: 584
Flags: HW
LayerCount: 2
Fore
SplineSet
121 562 m 0
 157 647 248.994140625 651.704101562 341 650 c 0
 395 649 431.681640625 621.370117188 457 574 c 0
 488 516 490 472 489 406 c 24
 487 332 478.978515625 285.009765625 449 218 c 0
 432 180 414.041992188 163.881835938 375 150 c 0
 330 134 295 128 247 128 c 0
 206 128 139.782226562 121.331054688 117 156 c 0
 71 226 56.3212890625 409.286132812 121 562 c 0
91 586 m 0
 20.7392578125 412.10546875 29 188 91 118 c 0
 135.87109375 67.3388671875 207 78 263 76 c 0
 316.00390625 74.107421875 353 83 401 106 c 0
 455.862304688 132.288085938 482 151 507 206 c 0
 539.2265625 276.897460938 536 326 535 404 c 24
 534 480 541 535 501 600 c 0
 463.333984375 661.20703125 413 692 341 692 c 0
 234 692 131 685 91 586 c 0
EndSplineSet
EndChar

StartChar: one
Encoding: 49 49 54
Width: 238
Flags: HW
LayerCount: 2
Fore
SplineSet
71 633 m 0
 68.791015625 656.981445312 107.0546875 656.006835938 110 632 c 0
 139.1796875 394.134765625 108.227203567 301.449022395 128 71 c 0
 130.314453125 44.025390625 85.1677868555 42.7919776945 83 70 c 0
 64.2470703125 305.369140625 93.80078125 385.465820312 71 633 c 0
EndSplineSet
EndChar

StartChar: exclam
Encoding: 33 33 55
Width: 276
Flags: HW
LayerCount: 2
Fore
SplineSet
113 118 m 0
 113 137 130 152 151 152 c 0
 172 152 189 137 189 118 c 0
 189 99 172 84 151 84 c 0
 130 84 113 99 113 118 c 0
113 680 m 0
 116.446779253 506 105.45292633 406 125 234 c 0
 127.283643872 213.905598524 179.429419692 210.122929794 177 230 c 0
 155 410 174.777932733 505 149 680 c 0
 146.939067539 693.991159973 112.722020901 694.032915863 113 680 c 0
EndSplineSet
EndChar

StartChar: two
Encoding: 50 50 56
Width: 524
Flags: HW
LayerCount: 2
Fore
SplineSet
72 527 m 0
 90 527 90.3896484375 562.55078125 102 573 c 0
 142 609 228.509765625 654.108398438 358 633 c 0
 423.356445312 622.345703125 451.272460938 547.953125 440 483 c 0
 419 362 354.60546875 331.456054688 272 240 c 0
 216 178 57 115 56 104 c 0
 54.6298828125 88.9296875 393 83 468 91 c 0
 483.940429688 92.7001953125 486.00390625 133.943359375 470 133 c 0
 332.467773438 124.892578125 154.322265625 126.612304688 154 126 c 0
 154 126 252.926757812 162.067382812 302 215 c 0
 391 311 461.654296875 351.048828125 480 481 c 0
 492 566 459.359375 656.2578125 376 675 c 0
 253.764648438 702.482421875 186.904296875 678.7421875 84 617 c 0
 54 599 44.7353515625 573.06640625 46 555 c 0
 48.205078125 523.512695312 47.6689453125 527 72 527 c 0
EndSplineSet
EndChar

StartChar: three
Encoding: 51 51 57
Width: 478
Flags: HW
LayerCount: 2
Fore
SplineSet
55 686 m 0
 40.0259242321 686.881507174 52.022132369 657.108614037 67 654 c 0
 173 632 265.9921875 702.985351562 361 650 c 0
 413 621 399.660553458 522.298550838 361 478 c 0
 313 423 147 410 147 410 c 1
 142.850585938 401.034179688 108.083007812 373.286132812 318 346 c 0
 347.165039062 342.208984375 375.173155758 296.969672244 370 268 c 0
 360 212 380.955015905 187.072366913 332 157 c 0
 262 114 143.000341612 141.999072731 105 128 c 0
 90.1630859375 122.534179688 63.003399915 104.329826806 79 104 c 0
 176 102 269.524221891 66.1399368329 352 117 c 0
 412 154 399.86228228 206.015627606 408 276 c 0
 413 319 382.845552885 349.436298076 346 374 c 0
 322 390 300 384 224 396 c 0
 224 396 412.855131712 435.422537804 425 514 c 0
 433.910174167 571.648947451 443.006835938 631.6640625 377 676 c 0
 294.512695312 731.40625 179.912369128 678.64654786 55 686 c 0
EndSplineSet
EndChar

StartChar: four
Encoding: 52 52 58
Width: 461
Flags: HW
LayerCount: 2
Fore
SplineSet
259 348 m 0
 260.21875 359.3359375 289.326171875 352.965820312 288 342 c 0
 277.112304688 252 267 189 270 111 c 0
 270.717773438 92.33203125 239 87 236 114 c 0
 225.681640625 206.864257812 249 255 259 348 c 0
107 686 m 0
 109 704 167.625 703.8359375 165 686 c 0
 137.688476562 500.443359375 93.1416015625 244.469726562 103 236 c 0
 139.600585938 204.556640625 249.23046875 243.172851562 399 252 c 0
 419.188476562 253.189453125 411.137695312 203.866210938 391 202 c 0
 240.12890625 188.016601562 61.36328125 139.1015625 59 210 c 0
 57 270 86.3291015625 499.962890625 107 686 c 0
EndSplineSet
EndChar

StartChar: five
Encoding: 53 53 59
Width: 758
Flags: HW
LayerCount: 2
Fore
SplineSet
183 556 m 24
 187 569 213 552 215 538 c 24
 222 491 168.171875 449.096679688 203 418 c 0
 259 368 468 364 541 232 c 24
 580 161 444.920898438 138.443359375 365 124 c 0
 282 109 154.604492188 136.198242188 79 174 c 0
 57 185 32.3984375 210.795898438 43 232 c 0
 48 242 74.4150390625 237.525390625 81 230 c 0
 88 222 102.919921875 198.719726562 113 196 c 0
 176 179 287.981445312 156.153320312 353 164 c 0
 411 171 528 179 491 224 c 24
 401 332 219 334 169 386 c 0
 122.888671875 433.956054688 164 492 183 556 c 24
685 582 m 24
 612 633 568 676 479 682 c 24
 377 689 320 655 227 614 c 24
 212 607 217 570 233 572 c 24
 327 581 372 643 467 638 c 24
 553 634 586 571 669 550 c 24
 683 547 696 574 685 582 c 24
EndSplineSet
EndChar

StartChar: six
Encoding: 54 54 60
Width: 478
Flags: HW
LayerCount: 2
Fore
SplineSet
329 696 m 0
 222 582 125.479492188 500 83 402 c 0
 42.2138671875 307.907226562 -0.5185546875 182.564453125 77 116 c 0
 169 37 277.819335938 66.3671875 387 120 c 0
 444 148 436.112304688 213.123046875 389 256 c 0
 300 337 183 316 127 324 c 0
 113 326 104.157226562 278.013671875 117 276 c 0
 214.532226562 260.708007812 258.967773438 296.860351562 349 230 c 0
 382.880859375 204.838867188 395.1640625 161.520507812 355 148 c 0
 254 114 184.137695312 84.0751953125 101 150 c 0
 44.58203125 194.737304688 83.912109375 305.068359375 127 388 c 0
 181.034179688 492 281 551 359 670 c 24
 367 683 339.646484375 707.342773438 329 696 c 0
EndSplineSet
EndChar

StartChar: seven
Encoding: 55 55 61
Width: 416
Flags: HW
LayerCount: 2
Fore
SplineSet
71 618 m 0
 53.1572265625 619.049804688 42.6689453125 572.693359375 59 574 c 0
 109 578 307 554 307 554 c 0
 307 554 111 168 69 98 c 0
 60.6884765625 84.146484375 100.865234375 74.078125 109 88 c 0
 213 266 361 582 361 582 c 0
 361 582 105 616 71 618 c 0
EndSplineSet
EndChar

StartChar: eight
Encoding: 56 56 62
Width: 425
Flags: HW
LayerCount: 2
Fore
SplineSet
368 689 m 0
 362 688 358.319335938 666.923828125 356 662 c 0
 310.586914062 565.587890625 222.619140625 521.6171875 170 449 c 0
 119.440429688 379.225585938 88.4716796875 287.083984375 80 183 c 0
 73 97 251.677734375 107.36328125 317 165 c 0
 368 210 311 278 269 333 c 24
 219 399 147.4453125 390.358398438 95 455 c 0
 52 508 60.466796875 544.5625 110 591 c 0
 190 666 240.626953125 618.885742188 345 651 c 0
 358 655 350.009765625 683.8671875 337 683 c 0
 217 675 167 692 82 607 c 0
 34.697265625 559.697265625 14.736328125 524.21875 49 469 c 0
 56.0244140625 457.6796875 69.0703125 441.327148438 77 430 c 0
 126 360 188.672851562 373.702148438 246 311 c 0
 278 276 317.990234375 221.897460938 287 186 c 0
 251.676757812 145.083984375 106.135742188 130.094726562 116 183 c 0
 133.752929688 278.208007812 158.451171875 367.340820312 205 432 c 0
 260.591796875 509.219726562 349.483398438 560.485351562 392 668 c 0
 396.958984375 680.540039062 384.057617188 691.67578125 368 689 c 0
EndSplineSet
EndChar

StartChar: nine
Encoding: 57 57 63
Width: 397
Flags: HW
LayerCount: 2
Fore
SplineSet
321 486 m 0
 246 539 212 554 178 557 c 0
 139.137695312 560.428710938 104 563 80 495 c 0
 63.533203125 448.34375 117 414 138 398 c 0
 156.569335938 383.8515625 170 381 196 382 c 0
 229.3515625 383.283203125 235 386 247 398 c 0
 266.104492188 417.104492188 293.5703125 436.489257812 314 454 c 0
 321 460 339.577148438 452.045898438 340 443 c 0
 346.758789062 298.319335938 343.965820312 246.881835938 339 126 c 0
 338.30078125 108.985351562 299.749023438 100.739257812 300 118 c 0
 301.5390625 224 316.2109375 393 315 407 c 0
 315 407 270 364 258 354 c 0
 245.400390625 343.5 214.7109375 338.93359375 199 338 c 0
 168.903320312 336.211914062 131 347 106 365 c 0
 78.5390625 384.771484375 18 450 39 507 c 0
 68.4658203125 586.979492188 145.088867188 596.875976562 179 593 c 0
 214 589 306 550 340 509 c 0
 349.970703125 496.975585938 333.913085938 476.875 321 486 c 0
EndSplineSet
EndChar

StartChar: semicolon
Encoding: 59 59 64
Width: 326
Flags: HW
LayerCount: 2
Fore
SplineSet
177 322 m 0
 215 279 228 239 234 210 c 0
 239.40625 183.870117188 241.341796875 170.416992188 220 154 c 0
 207 144 171.12109375 121.388671875 130 134 c 0
 106.783203125 141.120117188 77.00390625 155.688476562 95 170 c 0
 118.234375 188.477539062 149.49609375 149.130859375 173 163 c 0
 189.25 172.588867188 210.234375 192.370117188 206 211 c 0
 201 233 162 284 161 312 c 0
 160.459960938 327.123046875 166.65625 333.705078125 177 322 c 0
171 376 m 0
 194 370 206.108451309 337.96873445 202 324 c 0
 197 307 168 296 152 302 c 0
 138.59375 307.02734375 117.99936221 322.000075046 120 339 c 0
 121.421875 351.08203125 149.867239352 381.512894082 171 376 c 0
145 522 m 0
 145 536 157 548 171 548 c 0
 185 548 197 536 197 522 c 0
 197 508 185 496 171 496 c 0
 157 496 145 508 145 522 c 0
EndSplineSet
EndChar

StartChar: colon
Encoding: 58 58 65
Width: 266
Flags: HW
LayerCount: 2
Fore
SplineSet
95 330 m 0
 95 344 108 356 125 356 c 0
 142 356 155 344 155 330 c 0
 155 316 142 304 125 304 c 0
 108 304 95 316 95 330 c 0
95 534 m 0
 95 549 108 562 125 562 c 0
 142 562 155 549 155 534 c 0
 155 519 142 506 125 506 c 0
 108 506 95 519 95 534 c 0
EndSplineSet
EndChar

StartChar: period
Encoding: 46 46 66
Width: 210
Flags: HW
LayerCount: 2
Fore
SplineSet
64 186 m 4
 64 201 77 214 94 214 c 4
 111 214 124 201 124 186 c 4
 124 171 111 158 94 158 c 4
 77 158 64 171 64 186 c 4
EndSplineSet
EndChar

StartChar: quotesingle
Encoding: 39 39 67
Width: 228
Flags: HW
LayerCount: 2
Fore
SplineSet
101 551 m 0
 85 533 64.8173828125 501.872070312 68 478 c 0
 70 463 96.3251953125 462.712890625 106 474 c 0
 124 495 132.801757812 517.979492188 130 546 c 0
 129 556 108.0625 558.9453125 101 551 c 0
EndSplineSet
EndChar

StartChar: parenleft
Encoding: 40 40 68
Width: 262
Flags: HW
LayerCount: 2
Fore
SplineSet
173 698 m 0
 177.5625 705.822265625 205.96875 695.252929688 197 696 c 0
 173 698 13 356 157 110 c 0
 163.586914062 98.748046875 128.330078125 94.1005859375 123 106 c 0
 37 298 61 506 173 698 c 0
EndSplineSet
EndChar

StartChar: parenright
Encoding: 41 41 69
Width: 367
Flags: HWO
LayerCount: 2
Fore
SplineSet
83 704 m 0
 79.0411600445 713.237293229 95.18845569 730.673289614 101 722 c 0
 233 525 283 352 237 98 c 0
 234.126553728 82.1335792783 190.270170614 78.2003571567 195 94 c 0
 289 408 149 550 83 704 c 0
EndSplineSet
EndChar
